HIERARCHY
ROOT Hips
{
	OFFSET	0.00	0.00	0.00
	CHANNELS 6 Xposition Yposition Zposition Zrotation Xrotation Yrotation
	JOINT LeftUpLeg
	{
		OFFSET	 0.126116	-0.014019	-0.065224
		CHANNELS 3 Zrotation Xrotation Yrotation
		JOINT LeftLeg
		{
			OFFSET	 0.000000	 0.000000	 0.569914
			CHANNELS 3 Zrotation Xrotation Yrotation
			JOINT LeftFoot
			{
				OFFSET	 0.000000	 0.000000	 0.544423
				CHANNELS 3 Zrotation Xrotation Yrotation
				JOINT LeftToeBase
				{
					OFFSET	 0.000000	 0.000000	 0.207117
					CHANNELS 3 Zrotation Xrotation Yrotation
					End Site
					{
						OFFSET	 0.000000	 0.000000	 0.207117
					}
				}
			}
		}
	}
	JOINT RightUpLeg
	{
		OFFSET	-0.124023	-0.008373	-0.065224
		CHANNELS 3 Zrotation Xrotation Yrotation
		JOINT RightLeg
		{
			OFFSET	 0.000000	 0.000000	 0.570047
			CHANNELS 3 Zrotation Xrotation Yrotation
			JOINT RightFoot
			{
				OFFSET	 0.000000	 0.000000	 0.544354
				CHANNELS 3 Zrotation Xrotation Yrotation
				JOINT RightToeBase
				{
					OFFSET	 0.000000	 0.000000	 0.207540
					CHANNELS 3 Zrotation Xrotation Yrotation
					End Site
					{
						OFFSET	 0.000000	 0.000000	 0.207540
					}
				}
			}
		}
	}
	JOINT Spine
	{
		OFFSET	 0.000184	-0.007763	 0.117403
		CHANNELS 3 Zrotation Xrotation Yrotation
		JOINT Spine1
		{
			OFFSET	 0.000000	 0.000000	 0.137269
			CHANNELS 3 Zrotation Xrotation Yrotation
			JOINT Spine2
			{
				OFFSET	 0.000000	 0.000000	 0.156879
				CHANNELS 3 Zrotation Xrotation Yrotation
				JOINT LeftShoulder
				{
					OFFSET	 0.080501	-0.002496	 0.160144
					CHANNELS 3 Zrotation Xrotation Yrotation
					JOINT LeftArm
					{
						OFFSET	 0.000000	 0.000000	 0.164363
						CHANNELS 3 Zrotation Xrotation Yrotation
						JOINT LeftForeArm
						{
							OFFSET	 0.000000	 0.000000	 0.364576
							CHANNELS 3 Zrotation Xrotation Yrotation
							JOINT LeftHand
							{
								OFFSET	 0.000000	 0.000000	 0.360812
								CHANNELS 3 Zrotation Xrotation Yrotation
								JOINT LeftHandIndex1
								{
									OFFSET	 0.000000	 0.000000	 0.086006
									CHANNELS 3 Zrotation Xrotation Yrotation
									JOINT LeftHandIndex2
									{
										OFFSET	 0.000000	 0.000000	 0.047236
										CHANNELS 3 Zrotation Xrotation Yrotation
										JOINT LeftHandIndex3
										{
											OFFSET	-0.004284	-0.000551	 0.038166
											CHANNELS 3 Zrotation Xrotation Yrotation
											End Site
											{
												OFFSET	-0.004284	-0.000551	 0.038166
											}
										}
									}
								}
							}
						}
					}
				}
				JOINT Neck
				{
					OFFSET	 0.000000	 0.000000	 0.176489
					CHANNELS 3 Zrotation Xrotation Yrotation
					JOINT Head
					{
						OFFSET	 0.000000	-0.001747	 0.077940
						CHANNELS 3 Zrotation Xrotation Yrotation
						End Site
						{
							OFFSET	 0.000000	-0.001747	 0.077940
						}
					}
				}
				JOINT RightShoulder
				{
					OFFSET	-0.080363	 0.000306	 0.159706
					CHANNELS 3 Zrotation Xrotation Yrotation
					JOINT RightArm
					{
						OFFSET	 0.000000	 0.000000	 0.164196
						CHANNELS 3 Zrotation Xrotation Yrotation
						JOINT RightForeArm
						{
							OFFSET	 0.000000	 0.000000	 0.365611
							CHANNELS 3 Zrotation Xrotation Yrotation
							JOINT RightHand
							{
								OFFSET	 0.000000	 0.000000	 0.360648
								CHANNELS 3 Zrotation Xrotation Yrotation
								JOINT RightHandIndex1
								{
									OFFSET	 0.000000	 0.000000	 0.069977
									CHANNELS 3 Zrotation Xrotation Yrotation
									JOINT RightHandIndex2
									{
										OFFSET	 0.000000	 0.000000	 0.052305
										CHANNELS 3 Zrotation Xrotation Yrotation
										JOINT RightHandIndex3
										{
											OFFSET	 0.009002	-0.000782	 0.042196
											CHANNELS 3 Zrotation Xrotation Yrotation
											End Site
											{
												OFFSET	 0.009002	-0.000782	 0.042196
											}
										}
									}
								}
							}
						}
					}
				}
			}
		}
	}
}
MOTION
Frames:    12
Frame Time: 0.03333334
 6.488195	 3.431069	 0.466579	 167.948700	-2.359389	-1.110195	 7.234142	 19.881640	-176.749100	-3.574793	-11.633570	 1.463963	 3.441045	 84.247150	-0.135755	-2.309350	 38.971450	-0.248392	 4.763989	-35.553630	-178.027900	 1.786052	-44.834880	 5.643725	 103.651300	 89.868780	-97.668520	 2.372904	 30.743280	 0.051788	-0.982459	 3.584913	 2.356380	-1.131563	-1.487856	 0.793793	-1.165507	-3.981837	-0.628237	-91.776180	 78.527420	-180.000000	 35.570810	 60.624600	-53.540020	-8.950312	-4.958535	-35.568420	 3.725109	-3.843144	-5.377409	-3.812334	 37.924440	-2.927599	-2.450526	 36.184240	 0.754587	-1.378229	 35.397820	-2.634230	 1.213212	 2.146884	-4.946619	 0.993651	-9.118039	 3.346777	 89.782120	 78.203870	 180.000000	-38.188390	 71.875590	 35.713100	 0.050414	-6.848738	 22.335280	-13.163150	-4.979745	 9.584847	 6.437017	 35.671460	-0.771858	 2.830251	 35.756010	-7.813440	-2.350882	 35.473990	 5.254307
 6.499857	 3.478513	 0.464844	 168.383700	-1.998224	-1.282503	 7.396026	 21.850470	-177.027700	-3.468604	-11.626460	 1.519635	 4.044951	 84.425670	-0.491565	-2.281049	 41.427550	-0.314585	 5.261296	-36.058300	-177.534200	 0.006801	-39.719010	 4.069736	 146.932400	 89.570220	-141.584500	 2.364709	 32.122640	 0.083003	-1.072869	 3.332494	 2.207313	-1.191850	-1.614754	 0.723088	-1.190147	-4.090943	-0.664755	-91.776180	 78.527400	-180.000000	 36.167680	 60.529220	-54.526290	-9.058917	-4.968256	-36.568780	 3.449767	-5.253983	-5.384104	-3.812334	 37.924440	-2.927599	-2.450526	 36.184240	 0.754587	-1.378229	 35.397820	-2.634230	 1.226627	 2.160487	-4.981921	 1.029560	-9.296144	 3.810490	 89.782100	 78.203850	-180.000000	-37.029030	 72.580550	 34.354740	 0.276432	-6.751789	 21.394830	-13.316940	-6.369613	 9.598502	 6.437017	 35.671460	-0.771858	 2.830251	 35.756010	-7.813440	-2.350882	 35.473990	 5.254307
 6.514485	 3.536104	 0.462886	 168.930900	-1.949141	-1.323287	 7.697703	 24.324360	-177.808700	-2.997685	-11.611360	 1.632196	 4.912722	 83.726210	-0.782924	-2.232453	 44.883420	-0.415269	 4.978855	-35.880780	-177.422100	 0.001903	-37.760270	 3.698098	 151.834000	 89.379770	-146.550100	 2.361227	 32.663120	 0.095421	-1.231268	 3.212247	 1.947829	-1.275551	-1.706010	 0.552121	-1.156760	-4.144204	-0.732655	-91.776180	 78.527420	-180.000000	 37.289200	 60.994800	-55.431630	-9.125069	-4.991975	-36.646590	 3.296028	-7.159163	-5.403776	-3.812334	 37.924440	-2.927599	-2.450526	 36.184240	 0.754587	-1.378229	 35.397820	-2.634230	 1.259168	 2.073811	-5.030111	 1.088046	-9.333372	 4.338102	 89.782120	 78.203930	 180.000000	-35.791740	 73.214060	 32.980500	 0.319846	-6.633512	 20.234200	-13.527440	-8.275238	 9.626409	 6.437017	 35.671460	-0.771858	 2.830251	 35.756010	-7.813440	-2.350882	 35.473990	 5.254307
 6.529840	 3.591468	 0.461034	 169.431400	-2.064193	-1.313307	 8.103988	 26.649930	-178.933600	-2.228528	-11.589480	 1.782362	 5.654631	 81.825120	-0.683525	-2.190590	 47.339350	-0.493365	 4.847506	-35.109920	-177.600000	 0.874262	-38.594010	 4.303030	 98.721430	 89.756910	-92.857360	 2.371805	 30.939210	 0.056180	-1.370008	 3.110501	 1.858779	-1.340606	-1.719820	 0.348090	-1.060488	-4.002572	-0.813050	-91.776180	 78.527400	 180.000000	 38.702790	 61.739690	-56.022430	-9.139331	-4.925656	-35.952450	 3.104031	-9.139011	-5.432551	-3.812334	 37.924440	-2.927599	-2.450526	 36.184240	 0.754587	-1.378229	 35.397820	-2.634230	 1.361887	 2.225612	-5.096099	 1.182273	-9.433228	 4.737723	 89.782090	 78.203890	-180.000000	-35.052480	 73.610560	 32.177390	 0.197016	-6.513611	 19.233260	-13.650350	-10.263090	 9.667709	 6.437017	 35.671460	-0.771858	 2.830251	 35.756010	-7.813440	-2.350882	 35.473990	 5.254307
 6.549219	 3.657687	 0.458949	 170.096500	-2.201427	-1.223677	 8.699010	 29.228860	 179.349800	-1.319637	-11.566540	 1.927597	 5.874691	 77.868380	 0.077644	-2.129544	 50.335390	-0.597800	 4.462196	-33.509910	-178.216800	 2.580578	-40.957180	 5.571416	 10.674810	 89.031870	-3.883460	 2.380606	 29.263640	 0.019040	-1.623062	 2.855957	 1.755952	-1.465071	-1.736926	 0.083340	-0.891674	-3.726907	-0.965038	-91.776180	 78.527380	-180.000000	 40.482180	 62.939860	-56.060400	-9.012577	-4.822337	-34.302970	 2.956318	-11.651930	-5.477117	-3.812334	 37.924440	-2.927599	-2.450526	 36.184240	 0.754587	-1.378229	 35.397820	-2.634230	 1.519619	 2.641835	-5.127235	 1.305745	-9.572503	 5.043545	 89.782120	 78.203870	 180.000000	-33.603240	 73.963660	 30.381410	 0.084629	-6.384989	 18.304940	-13.639440	-12.769410	 9.741991	 6.437017	 35.671460	-0.771858	 2.830251	 35.756010	-7.813440	-2.350882	 35.473990	 5.254307
 6.572012	 3.735929	 0.459240	 171.212400	-2.374460	-1.028794	 9.504105	 31.969790	 177.165500	-1.071898	-11.568630	 1.915836	 5.375629	 69.804340	 1.107529	-2.106251	 51.339450	-0.635451	 3.111020	-31.446620	-179.037600	 4.492581	-43.981510	 6.587947	 3.395579	 86.297260	 3.637777	 2.389088	 27.326940	-0.022809	-1.976542	 2.569046	 1.342944	-1.650619	-1.713536	-0.161780	-0.763062	-3.507351	-1.148474	-91.776180	 78.527420	-180.000000	 42.737800	 64.734700	-55.821920	-8.517745	-4.823848	-31.140530	 3.246729	-14.847220	-5.549262	-3.812334	 37.924440	-2.927599	-2.450526	 36.184240	 0.754587	-1.378229	 35.397820	-2.634230	 1.649002	 3.033041	-5.013089	 1.395967	-9.469231	 5.086173	 89.782110	 78.203930	 180.000000	-32.038460	 74.177730	 28.366220	 0.172074	-6.232372	 17.686030	-13.183470	-15.945100	 9.874387	 6.437017	 35.671460	-0.771858	 2.830251	 35.756010	-7.813440	-2.350882	 35.473990	 5.254307
 6.587203	 3.779692	 0.462875	 171.975600	-2.594347	-1.172980	 7.704446	 27.672210	 176.844600	-1.021323	-22.266940	 1.775632	 3.790004	 66.836790	 0.242951	-2.140006	 49.861930	-0.580538	 2.228263	-30.204100	-179.238100	 5.099335	-46.071600	 6.804188	 3.545554	 84.460590	 3.074643	 2.395452	 25.526020	-0.060810	-2.058448	 2.293797	 1.407263	-1.722965	-1.610784	-0.229951	-0.841440	-3.309447	-1.193343	-91.776180	 78.527400	-180.000000	 43.963100	 65.982720	-55.816180	-8.268309	-4.797132	-28.452720	 3.601433	-16.971470	-5.606891	-3.812334	 37.924440	-2.927599	-2.450526	 36.184240	 0.754587	-1.378229	 35.397820	-2.634230	 1.688609	 3.050681	-4.881462	 1.426809	-9.236632	 4.963727	 89.782120	 78.203870	 180.000000	-32.111100	 74.125700	 28.568690	 0.173111	-6.130267	 17.383530	-12.773010	-18.051100	 9.982384	 6.437017	 35.671460	-0.771858	 2.830251	 35.756010	-7.813440	-2.350882	 35.473990	 5.254307
 6.606932	 3.832092	 0.468636	 172.764300	-2.774197	-1.432070	 7.537771	 19.515400	 175.378100	-1.225249	-38.606440	 1.461567	 2.503877	 61.463560	 0.465568	-2.235107	 44.714000	-0.410098	 1.555122	-28.565470	-179.511200	 5.586371	-47.941200	 7.015318	 3.503148	 84.100030	 2.826829	 2.404059	 21.918260	-0.134756	-2.014864	 2.078845	 1.799464	-1.741561	-1.567428	-0.256796	-0.825321	-2.965572	-1.213276	-91.776180	 78.527400	-180.000000	 44.500070	 67.737970	-54.930110	-8.112335	-4.738814	-24.812880	 4.233009	-19.839950	-5.691817	-3.812334	 37.924440	-2.927599	-2.450526	 36.184240	 0.754587	-1.378229	 35.397820	-2.634230	 1.648878	 2.942939	-4.746216	 1.379848	-8.821269	 4.638365	 89.782120	 78.203870	 180.000000	-32.935500	 73.733800	 29.903310	-0.134652	-6.038564	 17.029980	-12.297740	-20.865370	 10.155110	 6.437017	 35.671460	-0.771858	 2.830251	 35.756010	-7.813440	-2.350882	 35.473990	 5.254307
 6.625783	 3.883900	 0.474294	 173.679500	-3.110517	 0.304836	 7.687808	 13.015370	 171.973400	-2.369210	-51.964330	-0.338549	 0.763743	 55.569970	 0.887811	-2.344872	 35.131000	-0.152032	 0.689180	-24.771950	 178.111800	 6.502980	-47.560170	 7.021838	 2.873972	 84.804950	 3.609526	 2.407485	 18.531830	-0.202097	-2.378820	 2.778783	-0.105207	-1.764434	-1.695833	-0.637302	-0.517862	-3.407903	-1.256906	-91.776180	 78.527400	-180.000000	 43.574170	 69.553060	-52.767820	-8.539425	-4.522884	-21.566680	 4.595099	-22.726040	-5.788140	-3.812334	 37.924440	-2.927599	-2.450526	 36.184240	 0.754587	-1.378229	 35.397820	-2.634230	 1.511833	 2.893358	-4.640016	 1.221292	-8.552510	 4.130232	 89.782120	 78.203870	 180.000000	-34.246460	 73.020050	 32.014940	-0.609661	-5.973233	 16.803360	-11.763680	-23.672930	 10.362810	 6.437017	 35.671460	-0.771858	 2.830251	 35.756010	-7.813440	-2.350882	 35.473990	 5.254307
 6.645093	 3.937685	 0.480127	 174.921300	-3.159250	 2.199200	 6.369262	 5.301856	 169.601700	-4.836796	-64.074980	-4.487603	-0.782401	 56.308350	 0.585552	-2.359911	 33.098130	-0.103938	 0.250088	-20.765940	 175.579100	 7.327611	-46.039350	 6.927659	 1.730070	 86.202950	 5.135614	 2.407684	 17.512170	-0.222064	-2.752663	 3.047997	-2.044664	-1.877715	-1.858662	-1.066649	-0.603427	-4.043310	-1.238329	-91.776180	 78.527400	-180.000000	 42.007670	 71.093670	-50.374280	-9.639449	-4.060649	-18.697200	 4.220396	-25.944170	-5.918054	-3.812334	 37.924440	-2.927599	-2.450526	 36.184240	 0.754587	-1.378229	 35.397820	-2.634230	 1.309368	 2.946967	-4.506357	 1.039593	-8.814910	 3.597275	 89.782110	 78.203930	 180.000000	-36.506680	 71.909860	 36.063790	-1.106991	-5.955627	 16.772940	-11.098910	-26.796240	 10.634670	 6.437017	 35.671460	-0.771858	 2.830251	 35.756010	-7.813440	-2.350882	 35.473990	 5.254307
 6.659739	 3.982400	 0.484056	 175.751900	-3.145342	 2.718570	 4.434505	-1.145964	 169.814600	-6.306760	-71.481980	-7.583964	-1.171273	 61.172440	 0.359375	-2.341520	 35.544170	-0.162025	 0.279659	-18.016790	 174.627400	 7.592337	-45.148980	 6.867813	-0.260675	 87.918880	 7.377986	 2.407672	 17.743440	-0.217546	-2.734201	 2.957505	-2.546972	-1.883998	-1.903077	-1.104745	-0.920047	-4.368676	-1.118668	-91.776180	 78.527400	-180.000000	 40.248790	 71.898120	-48.049110	-10.303270	-3.782085	-17.022860	 3.862448	-28.754790	-6.057764	-3.812334	 37.924440	-2.927599	-2.450526	 36.184240	 0.754587	-1.378229	 35.397820	-2.634230	 1.104576	 2.984757	-4.373886	 0.879345	-9.131481	 3.093010	 89.782070	 78.203930	-180.000000	-37.979190	 70.785910	 39.582770	-1.385902	-6.025862	 17.006400	-10.501860	-29.531040	 10.914630	 6.437017	 35.671460	-0.771858	 2.830251	 35.756010	-7.813440	-2.350882	 35.473990	 5.254307
 6.673705	 4.026432	 0.486632	 175.959200	-3.152473	 2.938698	 2.623245	-7.081775	 170.585300	-6.384264	-75.349820	-8.947104	-1.048226	 66.575360	 0.115377	-2.313208	 38.602020	-0.238772	 0.586600	-15.560590	 173.977900	 7.519964	-44.684560	 6.817424	-20.764940	 89.663120	 28.025490	 2.407603	 18.153460	-0.209520	-2.330883	 3.099481	-2.725922	-1.617053	-1.912986	-0.953177	-1.088738	-4.537158	-0.852594	-91.776180	 78.527400	-180.000000	 38.377040	 72.290360	-45.122590	-10.189880	-3.761947	-16.413330	 3.784996	-31.537280	-6.226059	-3.812334	 37.924440	-2.927599	-2.450526	 36.184240	 0.754587	-1.378229	 35.397820	-2.634230	 0.826848	 2.980139	-4.161617	 0.642358	-9.124088	 2.266266	 89.782120	 78.203870	 180.000000	-38.767040	 69.508120	 42.486760	-1.553265	-6.176131	 17.591190	-9.784070	-32.256910	 11.243220	 6.437017	 35.671460	-0.771858	 2.830251	 35.756010	-7.813440	-2.350882	 35.473990	 5.254307
